<svg id="Capa_1" enable-background="new 0 0 512 512" height="512" viewBox="0 0 512 512" width="512"
     xmlns="http://www.w3.org/2000/svg">
    <g>
        <g>
            <g clip-rule="evenodd" fill-rule="evenodd">
                <path d="m82.173 288.506c-30.617 12.1-59.859 26.938-59.859 59.859v156.135h256.398 76.819v-156.135c0-32.919-29.242-47.761-59.859-59.859l-38.138-15.072c-40.074 31.637-97.148 31.637-137.222 0z"
                      fill="#afd1f2"/>
                <path d="m82.173 288.506c-30.617 12.1-59.859 26.938-59.859 59.859v156.135h22.5v-156.135c0-32.922 29.242-47.759 59.859-59.859l23.618-9.334c-2.725-1.781-5.388-3.693-7.98-5.738z"
                      fill="#99c5f2"/>
                <path d="m154.908 259.761-34.597 13.673c40.074 31.637 97.148 31.638 137.222 0l-34.597-13.673c-21.443 10.001-46.586 10-68.028 0z"
                      fill="#9c9c9f"/>
                <path d="m107.902 186.272c0 44.798 36.694 81.02 81.021 81.02s81.02-36.223 81.02-81.02l-30-30.166-102.041 1.008z"
                      fill="#fedbad"/>
                <path d="m188.922 75.086c-44.562 0-81.021 36.458-81.021 81.02v30.165l29.999-29.158 102.041-1.008 30.001 30.166v-30.165c0-44.752-36.648-81.02-81.02-81.02z"
                      fill="#9c9c9f"/>
                <path d="m269.942 156.106v30.165c0 32.434-19.313 60.574-47.007 73.49l34.597 13.673 38.138 15.072c30.617 12.099 59.859 26.94 59.859 59.859v156.135h82.499v-156.135c0-32.919-29.242-47.761-59.859-59.859l-72.743-28.747c30.503-14.224 43.192-38.272 46.248-67.935-41.099-19.395-64.052-65.607-52.6-111.25-21.725-6.819-49.178-5.872-68.898 5.879 23.762 14.162 39.766 40.129 39.766 69.653z"
                      fill="#e4ecf4"/>
                <path d="m349.082 207.095c1.199-4.898 2.049-9.995 2.593-15.272-41.099-19.395-64.052-65.607-52.6-111.25-4.661-1.463-9.586-2.567-14.641-3.285-2.136 8.636-3.276 17.67-3.276 26.977 0 46.164 27.999 85.783 67.924 102.83z"
                      fill="#c6daec"/>
                <path d="m269.942 156.106v30.165c0 32.434-19.313 60.574-47.007 73.49l34.597 13.673 38.138 15.072c30.617 12.099 59.859 26.94 59.859 59.859v156.135h15v-156.135c0-41.887-35.49-60.43-69.346-73.809l-46.548-18.395c18.961-17.829 30.305-42.938 30.306-69.888v-30.166c0-31.215-15.071-59.051-38.294-76.613-5.847 1.644-11.414 3.945-16.471 6.958 23.762 14.163 39.766 40.13 39.766 69.654z"
                      fill="#c6daec"/>
                <path d="m296.158 104.265c0 53.744 43.626 96.765 96.765 96.765 53.441 0 96.765-43.323 96.765-96.765 0-53.363-43.195-96.636-96.528-96.764-53.588-.001-97.002 43.128-97.002 96.764zm81.764 41.944v-26.945h-26.945v-30h26.945v-26.944h30v26.944h26.944v30h-26.944v26.945z"
                      fill="#afd1f2"/>
                <path d="m350.978 89.265v30h26.944v26.944h30v-26.944h26.945v-30h-26.945v-26.945h-30v26.945z"
                      fill="#e4ecf4"/>
                <path d="m154.908 259.761-34.597 13.673c2.591 2.046 5.255 3.957 7.98 5.738l38.166-15.083-.006-.002-.39-.114c-.237-.07-.474-.14-.711-.212l-.35-.108c-.222-.069-.443-.138-.664-.209l-.33-.106c-.247-.08-.493-.161-.74-.243l-.307-.103c-.248-.084-.495-.169-.742-.256l-.271-.095c-.276-.098-.552-.197-.827-.298l-.154-.057c-.306-.113-.611-.228-.916-.344l-.099-.038c-.315-.121-.63-.245-.944-.37l-.082-.033c-.32-.128-.64-.259-.959-.392l-.018-.008-.028-.012c-.324-.135-.647-.272-.97-.411l-.039-.017c-.329-.142-.657-.286-.984-.434l-.027-.012c-.331-.149-.661-.3-.991-.454z"
                      fill="#7e7d83"/>
                <path d="m107.902 186.272c0 44.798 36.694 81.02 81.021 81.02 3.813 0 7.568-.274 11.25-.793-39.117-5.509-69.771-39.283-69.771-80.228v-21.868z"
                      fill="#fab684"/>
                <path d="m188.922 75.086c-44.562 0-81.021 36.458-81.021 81.02v30.165l22.5-21.868v-8.297c0-40.744 30.48-74.706 69.764-80.228-3.679-.518-7.431-.792-11.243-.792z"
                      fill="#7e7d83"/>
                <path d="m296.158 104.265c0 58.066 50.638 102.762 108.024 96.109-112.882-13.1-113.027-179.062.081-192.209-57.407-6.703-108.105 38.018-108.105 96.1z"
                      fill="#99c5f2"/>
                <path d="m350.978 89.265v30h15v-30zm26.944 22.5v34.445h15v-34.445zm15-49.445h-15v34.444h15z"
                      fill="#c6daec"/>
            </g>
            <g>
                <path d="m430.422 51.765h15v15h-15z" fill="#fff"/>
            </g>
            <g>
                <path d="m340.423 141.764h15v15h-15z" fill="#fff"/>
            </g>
            <g>
                <path d="m318.031 467h15v15h-15z" fill="#fff"/>
            </g>
            <g>
                <path d="m400.53 467h15v15h-15z" fill="#fff"/>
            </g>
            <g>
                <path d="m211.422 399.781h-15v-15h15zm-30 0h-15v-15h15z" fill="#fff"/>
            </g>
        </g>
        <g>
            <path d="m298.428 281.53-58.346-23.057c22.593-16.055 37.361-42.436 37.361-72.201v-30.166c0-48.81-39.71-88.52-88.521-88.52-20.547 0-40.604 7.273-56.476 20.481l9.594 11.53c13.184-10.97 29.833-17.011 46.882-17.011 40.54 0 73.521 32.981 73.521 73.52v11.99l-19.413-19.521-108.204 1.069-19.424 18.88v-12.418c0-17.05 6.041-33.7 17.011-46.882l-11.53-9.595c-13.207 15.872-20.481 35.929-20.481 56.477v30.166c0 29.765 14.767 56.145 37.36 72.201l-58.345 23.057c-31.257 12.353-64.604 28.723-64.604 66.835v96.135h15v-96.135c0-25.9 21.089-39.438 55.116-52.885l34.223-13.525c20.096 14.665 44.696 22.706 69.769 22.706 25.072 0 49.673-8.041 69.769-22.706l34.223 13.525c34.027 13.446 55.116 26.983 55.116 52.885v37.499h15v-37.499c.002-38.114-33.345-54.483-64.601-66.835zm-182.948-92.165 25.496-24.781 95.877-.947 25.512 25.653c-1.59 39.144-33.917 70.502-73.444 70.502-39.501 0-71.813-31.318-73.441-70.427zm20.704 85.86 18.517-7.318c10.533 4.432 22.096 6.885 34.222 6.885 12.125 0 23.688-2.453 34.22-6.884l18.517 7.318c-32.238 19.012-73.237 19.013-105.476-.001z"/>
            <path d="m348.031 497h-61.82v-112.219h-15v112.219h-74.788v15h166.608v-111.135h-15z"/>
            <path d="m106.632 384.781h-15v112.219h-61.819v-37.499h-15v52.499h166.609v-15h-74.79z"/>
            <path d="m430.53 497h-52.499v15h67.499v-52.499h-15z"/>
            <path d="m357.728 202.411c11 3.956 22.849 6.119 35.194 6.119 57.491 0 104.265-46.773 104.265-104.265 0-24.811-8.868-48.853-24.972-67.698l-11.404 9.744c13.785 16.132 21.376 36.713 21.376 57.954 0 49.221-40.044 89.265-89.265 89.265s-89.265-40.044-89.265-89.265 40.044-89.265 89.265-89.265c21.324 0 41.965 7.641 58.12 21.516l9.773-11.379c-18.873-16.21-42.986-25.137-67.893-25.137-46.025 0-85.177 29.979-98.964 71.434-11.778-2.691-24.434-3.338-36.373-1.79l1.93 14.875c10.099-1.308 20.792-.786 30.751 1.452-1.056 5.941-1.608 12.054-1.608 18.294 0 39.654 22.253 74.205 54.925 91.83-4.044 27.499-17.268 45.648-41.325 56.866l-15.797 7.366 88.953 35.153c34.027 13.446 55.116 26.983 55.116 52.885v96.135h15v-96.135c0-38.114-33.347-54.483-64.603-66.835l-58.168-22.987c18.941-12.944 30.462-31.479 34.969-56.132z"/>
            <path d="m415.422 153.709v-26.945h26.944v-45h-26.944v-26.944h-45v26.944h-26.944v45h26.944v26.945zm-56.944-41.944v-15h26.944v-26.945h15v26.944h26.944v15h-26.944v26.945h-15v-26.945h-26.944z"/>
        </g>
    </g>
</svg>