<svg height="512" viewBox="0 0 64 64" width="512" xmlns="http://www.w3.org/2000/svg">
    <g id="shopping_&#xB7;_cart_&#xB7;_ecommerce_&#xB7;_add_&#xB7;_online"
       data-name="shopping  &#xB7; cart &#xB7; ecommerce &#xB7; add &#xB7; online">
        <path d="m16.46 23-1.27-12.01a2.2 2.2 0 0 0 -2.19-1.99h-8a2.011 2.011 0 0 0 -1.948 2.457 2.093 2.093 0 0 0 2.079 1.543h4.969a1.006 1.006 0 0 1 1 .89l3.7 33.331a2 2 0 0 0 1.99 1.779h35.56a1.994 1.994 0 0 0 1.96-1.62l4.09-22.015a2 2 0 0 0 -1.966-2.365z"
              fill="#4e901e"/>
        <path d="m25.67 33h-8.23l-.59-6h8.15z" fill="#91dc5a"/>
        <path d="m26.02 39h-7.995l.585 6h8 .39l-.667-6z" fill="#6ebb36"/>
        <path d="m26.333 39h8.667v-6h-9.333z" fill="#91dc5a"/>
        <path d="m25 27 .667 6h9.333v-6z" fill="#a4e276"/>
        <path d="m45 27-.67 6h8.67l1-6z" fill="#c9eeae"/>
        <path d="m45 27-.67 6h-9.33v-6z" fill="#b6eb92"/>
        <path d="m44.33 33-.66 6h-8.67v-6z" fill="#a4e276"/>
        <path d="m53 33-1 6h-8.33l.66-6z" fill="#b6eb92"/>
        <path d="m52 39-1 6h-8l.67-6z" fill="#a4e276"/>
        <path d="m26.333 39-.666-6h-.227-8l.585 6h7.995z" fill="#7ed63e"/>
        <path d="m35 39v6h8l.666-6z" fill="#91dc5a"/>
        <path d="m26.333 39 .667 6h8v-6z" fill="#7ed63e"/>
        <circle cx="44" cy="57" fill="#58595b" r="4"/>
        <circle cx="24" cy="57" fill="#58595b" r="4"/>
        <circle cx="51" cy="19" fill="#ed1c24" r="10"/>
        <path d="m51 9a10.029 10.029 0 0 0 -1.5.125 9.986 9.986 0 0 1 0 19.75 9.995 9.995 0 1 0 1.5-19.875z"
              fill="#cf1820"/>
        <g fill="#231f20">
            <path d="m51 8a11.007 11.007 0 0 0 -11 11 10.665 10.665 0 0 0 .43 3h-23.07l-1.17-11.11a3.2 3.2 0 0 0 -3.19-2.89h-8a2.922 2.922 0 0 0 -2.11.88 2.966 2.966 0 0 0 -.81 2.8 3.133 3.133 0 0 0 3.08 2.32h4.95l3.77 34.01a5 5 0 0 0 .12 9.99h5.1a5 5 0 0 0 9.8 0h10.2a5 5 0 0 0 9.8 0h4.1a1 1 0 0 0 0-2h-4.1a5 5 0 0 0 -9.8 0h-10.2a5 5 0 0 0 -9.8 0h-5.1a3 3 0 0 1 0-6h38.35a2.99 2.99 0 0 0 2.94-2.43l4.13-21.51a10.987 10.987 0 0 0 -8.42-18.06zm-7 46a3 3 0 1 1 -3 3 3.009 3.009 0 0 1 3-3zm-20 0a3 3 0 1 1 -3 3 3.009 3.009 0 0 1 3-3zm29.33-6.81a1 1 0 0 1 -.98.81h-36.45l-3.81-34.23a2 2 0 0 0 -1.99-1.77h-4.94a1.131 1.131 0 0 1 -1.13-.77.949.949 0 0 1 .28-.94.928.928 0 0 1 .69-.29h8a1.213 1.213 0 0 1 1.2 1.1l1.27 12a1 1 0 0 0 .99.9h24.75a11.116 11.116 0 0 0 1.31 2h-25.67a1 1 0 0 0 -.74.33 1.036 1.036 0 0 0 -.26.77l1.77 18a1 1 0 0 0 .99.9h32.39a1 1 0 0 0 .99-.84l2.63-15.78a11.639 11.639 0 0 0 2.35-1.15zm-17.33-9.19v-4h7.22l-.45 4zm6.55 2-.45 4h-6.1v-4zm-6.55-8v-4h7.88l-.44 4zm-8.77 6-.45-4h7.22v4zm6.77 2v4h-6.1l-.45-4zm-7.44-8-.44-4h7.88v4zm-1.79 2 .45 4h-6.29l-.39-4zm-6.43-2-.39-4h6.15l.45 4zm7.1 8 .44 4h-6.36l-.39-4zm26.38-6-.67 4h-6.37l.45-4zm-6.37-2 .37-3.3a10.631 10.631 0 0 0 6.69 1.18l-.36 2.12zm5.37 8-.67 4h-6.03l.44-4zm.18-12a9 9 0 1 1 9-9 9.014 9.014 0 0 1 -9 9z"/>
            <path d="m50 20v5a1 1 0 0 0 2 0v-5h5a1 1 0 0 0 0-2h-5v-5a1 1 0 0 0 -2 0v5h-5a1 1 0 0 0 0 2z"/>
        </g>
    </g>
</svg>