<svg height="512" viewBox="0 0 64 64" width="512" xmlns="http://www.w3.org/2000/svg">
    <g id="money_&#xB7;_ecommerce_&#xB7;_shopping_&#xB7;_buy_&#xB7;_bag"
       data-name="money &#xB7; ecommerce &#xB7; shopping &#xB7; buy &#xB7; bag">
        <path d="m55 15v34a6 6 0 0 1 -6 6h-28a6 6 0 0 1 -6-6v-34z" fill="#ffcd00"/>
        <path d="m51 15v28a12 12 0 0 1 -12 12h10a6 6 0 0 0 6-6v-34z" fill="#ebbf00"/>
        <path d="m7 33h40v24h-40z" fill="#4e901e"/>
        <path d="m45 33h2v24h-2z" fill="#447e1a"/>
        <path d="m3 37h40v24h-40z" fill="#5eac24"/>
        <path d="m41 37h2v24h-2z" fill="#529720"/>
        <path d="m55 49a6 6 0 0 1 -6 6h6a6 6 0 0 0 6-6v-34h-6z" fill="#a97c50"/>
        <path d="m58 15v34a6 6 0 0 1 -6 6h3a6 6 0 0 0 6-6v-34z" fill="#8b5e3c"/>
        <circle cx="25" cy="22" fill="#ed1c24" r="3"/>
        <circle cx="45" cy="22" fill="#ed1c24" r="3"/>
        <path d="m11 37h-8v8a8 8 0 0 0 8-8z" fill="#91dc5a"/>
        <path d="m3 53v8h8a8 8 0 0 0 -8-8z" fill="#91dc5a"/>
        <path d="m35 61h8v-8a8 8 0 0 0 -8 8z" fill="#91dc5a"/>
        <path d="m41 53.262v7.738h2v-8a7.992 7.992 0 0 0 -2 .262z" fill="#7fc14f"/>
        <path d="m43 45v-8h-8a8 8 0 0 0 8 8z" fill="#91dc5a"/>
        <path d="m41 37v7.738a7.992 7.992 0 0 0 2 .262v-8z" fill="#7fc14f"/>
        <g fill="#231f20">
            <path d="m24 52h-2a1 1 0 0 1 -1-1 1 1 0 0 0 -2 0 3 3 0 0 0 3 3v1a1 1 0 0 0 2 0v-1a3 3 0 0 0 0-6h-2a1 1 0 0 1 0-2h2a1 1 0 0 1 1 1 1 1 0 0 0 2 0 3 3 0 0 0 -3-3v-1a1 1 0 0 0 -2 0v1a3 3 0 0 0 0 6h2a1 1 0 0 1 0 2z"/>
            <path d="m61 14h-5v-1a10.987 10.987 0 0 0 -16-9.79 10.987 10.987 0 0 0 -16 9.79v1h-9a1 1 0 0 0 -1 1v17h-7a1 1 0 0 0 -1 1v3h-3a1 1 0 0 0 -1 1v24a1 1 0 0 0 1 1h40a1 1 0 0 0 1-1v-3h3a1 1 0 0 0 1-1v-1h7a7.008 7.008 0 0 0 7-7v-34a1 1 0 0 0 -1-1zm-16-10a9.014 9.014 0 0 1 9 9v1h-8v-1a10.988 10.988 0 0 0 -4-8.48 9.048 9.048 0 0 1 3-.52zm0 19a1 1 0 0 0 1-1v-1.72a2 2 0 1 1 -2 0v1.72a1 1 0 0 0 1 1zm-5-17.48a9.01 9.01 0 0 1 4 7.48v1h-8v-1a9.01 9.01 0 0 1 4-7.48zm-14 7.48a8.987 8.987 0 0 1 12-8.48 10.988 10.988 0 0 0 -4 8.48v1h-8zm-1 10a1 1 0 0 0 1-1v-1.72a2 2 0 1 1 -2 0v1.72a1 1 0 0 0 1 1zm-21 15h5.92a7 7 0 0 1 -5.92 5.92zm0 22v-5.92a7 7 0 0 1 5.92 5.92zm38 0h-5.92a7 7 0 0 1 5.92-5.92zm0-7.94a9.013 9.013 0 0 0 -7.94 7.94h-22.12a9.013 9.013 0 0 0 -7.94-7.94v-6.12a9.013 9.013 0 0 0 7.94-7.94h22.12a9.013 9.013 0 0 0 7.94 7.94zm0-8.14a7 7 0 0 1 -5.92-5.92h5.92zm4 12.08h-2v-19a1 1 0 0 0 -1-1h-35v-2h38zm3-2h-1v-21a1 1 0 0 0 -1-1h-31v-16h8v2.14a4 4 0 1 0 2 0v-2.14h18v2.14a4 4 0 1 0 2 0v-2.14h8v33a5 5 0 0 1 -5 5zm11-5a5 5 0 0 1 -5 5h-1.11a6.97 6.97 0 0 0 2.11-5v-33h4z"/>
            <path d="m32 50h4a1 1 0 0 0 0-2h-4a1 1 0 0 0 0 2z"/>
            <path d="m9 49a1 1 0 0 0 1 1h4a1 1 0 0 0 0-2h-4a1 1 0 0 0 -1 1z"/>
        </g>
    </g>
</svg>